<mxfile host="app.diagrams.net" agent="Mozilla/5.0 (Windows NT 10.0; Win64; x64) AppleWebKit/537.36 (KHTML, like Gecko) Chrome/132.0.0.0 Safari/537.36" version="26.0.11" pages="4">
  <diagram name="Home" id="Vw0tGW_7XxS8jRv_VC-R">
    <mxGraphModel dx="1050" dy="522" grid="0" gridSize="10" guides="1" tooltips="1" connect="1" arrows="1" fold="1" page="1" pageScale="1" pageWidth="827" pageHeight="1169" math="0" shadow="0">
      <root>
        <mxCell id="0" />
        <mxCell id="1" parent="0" />
        <mxCell id="MveCFYvzoIJywipP7jGe-2" value="" style="rounded=0;whiteSpace=wrap;html=1;" vertex="1" parent="1">
          <mxGeometry x="13" y="60" width="810" height="414" as="geometry" />
        </mxCell>
        <mxCell id="MveCFYvzoIJywipP7jGe-3" value="&lt;font style=&quot;font-size: 29px;&quot;&gt;site name: Trip of Japan&lt;/font&gt;" style="text;html=1;align=center;verticalAlign=middle;whiteSpace=wrap;rounded=0;" vertex="1" parent="1">
          <mxGeometry x="57" y="23" width="334" height="30" as="geometry" />
        </mxCell>
        <mxCell id="MveCFYvzoIJywipP7jGe-4" value="image" style="text;html=1;align=center;verticalAlign=middle;whiteSpace=wrap;rounded=0;" vertex="1" parent="1">
          <mxGeometry x="376" y="252" width="60" height="30" as="geometry" />
        </mxCell>
        <mxCell id="MveCFYvzoIJywipP7jGe-5" value="Home Japan Trip Plans&amp;nbsp; Contact Us" style="text;html=1;align=center;verticalAlign=middle;whiteSpace=wrap;rounded=0;fontSize=19;" vertex="1" parent="1">
          <mxGeometry x="436" y="25" width="389" height="30" as="geometry" />
        </mxCell>
        <mxCell id="MveCFYvzoIJywipP7jGe-7" value="&lt;br&gt;&lt;div&gt;site name: Trip of Japan&lt;/div&gt;&lt;div&gt;The name focus on how to trip in Japan.&lt;/div&gt;&lt;div&gt;site purpose: The site show how to enjoy and introduce good places for you.&lt;/div&gt;&lt;div&gt;Scenarios: which places can see Japanese culture.&lt;/div&gt;&lt;div&gt;Where can we get food Japanese food.&lt;/div&gt;&lt;div&gt;&lt;br&gt;&lt;/div&gt;&lt;div&gt;Color schemes: black, white, Assam indigo&lt;/div&gt;" style="text;html=1;align=center;verticalAlign=middle;whiteSpace=wrap;rounded=0;" vertex="1" parent="1">
          <mxGeometry x="173" y="545" width="459" height="263" as="geometry" />
        </mxCell>
      </root>
    </mxGraphModel>
  </diagram>
  <diagram id="vJJE0_wR3IGVTNp_JeTr" name="Japan">
    <mxGraphModel dx="1050" dy="522" grid="0" gridSize="10" guides="1" tooltips="1" connect="1" arrows="1" fold="1" page="1" pageScale="1" pageWidth="827" pageHeight="1169" math="0" shadow="0">
      <root>
        <mxCell id="0" />
        <mxCell id="1" parent="0" />
        <mxCell id="_WD_7JrTNQYp-VqBiHS4-1" value="Welcome to Japan" style="text;html=1;align=center;verticalAlign=middle;whiteSpace=wrap;rounded=0;fontSize=51;" vertex="1" parent="1">
          <mxGeometry x="178" y="101" width="467" height="30" as="geometry" />
        </mxCell>
        <mxCell id="8OwLsc7vgjIFUgYuEB51-1" value="Home Japan Trip Plans&amp;nbsp; Contact Us" style="text;html=1;align=center;verticalAlign=middle;whiteSpace=wrap;rounded=0;fontSize=19;" vertex="1" parent="1">
          <mxGeometry x="477" y="18" width="389" height="30" as="geometry" />
        </mxCell>
        <mxCell id="81T57eDxOPWzouVV9wUx-1" value="" style="rounded=0;whiteSpace=wrap;html=1;" vertex="1" parent="1">
          <mxGeometry x="90" y="187" width="172" height="203" as="geometry" />
        </mxCell>
        <mxCell id="81T57eDxOPWzouVV9wUx-2" value="" style="rounded=0;whiteSpace=wrap;html=1;" vertex="1" parent="1">
          <mxGeometry x="346" y="187" width="172" height="203" as="geometry" />
        </mxCell>
        <mxCell id="81T57eDxOPWzouVV9wUx-3" value="" style="rounded=0;whiteSpace=wrap;html=1;" vertex="1" parent="1">
          <mxGeometry x="609" y="187" width="172" height="203" as="geometry" />
        </mxCell>
        <mxCell id="81T57eDxOPWzouVV9wUx-4" value="" style="rounded=0;whiteSpace=wrap;html=1;" vertex="1" parent="1">
          <mxGeometry x="85" y="459" width="172" height="203" as="geometry" />
        </mxCell>
        <mxCell id="81T57eDxOPWzouVV9wUx-5" value="" style="rounded=0;whiteSpace=wrap;html=1;" vertex="1" parent="1">
          <mxGeometry x="346" y="455" width="172" height="203" as="geometry" />
        </mxCell>
        <mxCell id="81T57eDxOPWzouVV9wUx-6" value="" style="rounded=0;whiteSpace=wrap;html=1;" vertex="1" parent="1">
          <mxGeometry x="615" y="455" width="172" height="203" as="geometry" />
        </mxCell>
        <mxCell id="fBcL-RclqxdRfQWJzGQp-1" value="images" style="text;html=1;align=center;verticalAlign=middle;whiteSpace=wrap;rounded=0;" vertex="1" parent="1">
          <mxGeometry x="146" y="286" width="60" height="30" as="geometry" />
        </mxCell>
        <mxCell id="fBcL-RclqxdRfQWJzGQp-2" value="images" style="text;html=1;align=center;verticalAlign=middle;whiteSpace=wrap;rounded=0;" vertex="1" parent="1">
          <mxGeometry x="397" y="282" width="60" height="30" as="geometry" />
        </mxCell>
        <mxCell id="fBcL-RclqxdRfQWJzGQp-3" value="images" style="text;html=1;align=center;verticalAlign=middle;whiteSpace=wrap;rounded=0;" vertex="1" parent="1">
          <mxGeometry x="665" y="279" width="60" height="30" as="geometry" />
        </mxCell>
        <mxCell id="fBcL-RclqxdRfQWJzGQp-4" value="images" style="text;html=1;align=center;verticalAlign=middle;whiteSpace=wrap;rounded=0;" vertex="1" parent="1">
          <mxGeometry x="141" y="548" width="60" height="30" as="geometry" />
        </mxCell>
        <mxCell id="fBcL-RclqxdRfQWJzGQp-5" value="images" style="text;html=1;align=center;verticalAlign=middle;whiteSpace=wrap;rounded=0;" vertex="1" parent="1">
          <mxGeometry x="397" y="548" width="60" height="30" as="geometry" />
        </mxCell>
        <mxCell id="fBcL-RclqxdRfQWJzGQp-6" value="images" style="text;html=1;align=center;verticalAlign=middle;whiteSpace=wrap;rounded=0;" vertex="1" parent="1">
          <mxGeometry x="669" y="537" width="60" height="30" as="geometry" />
        </mxCell>
        <mxCell id="fBcL-RclqxdRfQWJzGQp-7" value="&lt;h1 style=&quot;margin-top: 0px;&quot;&gt;Introduce of Japan&lt;/h1&gt;&lt;p&gt;Lorem ipsum dolor sit amet, consectetur adipisicing elit, sed do eiusmod tempor incididunt ut labore et dolore magna aliqua.&lt;/p&gt;" style="text;html=1;whiteSpace=wrap;overflow=hidden;rounded=0;" vertex="1" parent="1">
          <mxGeometry x="79" y="722" width="664" height="320" as="geometry" />
        </mxCell>
      </root>
    </mxGraphModel>
  </diagram>
  <diagram id="vshYNB4I68SxZJWtrwCh" name="Trip Plans">
    <mxGraphModel dx="1050" dy="522" grid="0" gridSize="10" guides="1" tooltips="1" connect="1" arrows="1" fold="1" page="1" pageScale="1" pageWidth="827" pageHeight="1169" math="0" shadow="0">
      <root>
        <mxCell id="0" />
        <mxCell id="1" parent="0" />
        <mxCell id="-DdrHMrdOvQ-9ke0FHK7-2" value="" style="rounded=0;whiteSpace=wrap;html=1;" vertex="1" parent="1">
          <mxGeometry x="72" y="121" width="174" height="282" as="geometry" />
        </mxCell>
        <mxCell id="-DdrHMrdOvQ-9ke0FHK7-3" value="" style="rounded=0;whiteSpace=wrap;html=1;" vertex="1" parent="1">
          <mxGeometry x="331" y="124" width="174" height="282" as="geometry" />
        </mxCell>
        <mxCell id="-DdrHMrdOvQ-9ke0FHK7-4" value="" style="rounded=0;whiteSpace=wrap;html=1;" vertex="1" parent="1">
          <mxGeometry x="608" y="131" width="174" height="282" as="geometry" />
        </mxCell>
        <mxCell id="zHkrM2aUlT6kb9nou7SH-1" value="Home Japan Trip Plans&amp;nbsp; Contact Us" style="text;html=1;align=center;verticalAlign=middle;whiteSpace=wrap;rounded=0;fontSize=19;" vertex="1" parent="1">
          <mxGeometry x="430" y="8" width="389" height="30" as="geometry" />
        </mxCell>
        <mxCell id="zHkrM2aUlT6kb9nou7SH-2" value="Welcome to Japan" style="text;html=1;align=center;verticalAlign=middle;whiteSpace=wrap;rounded=0;fontSize=44;" vertex="1" parent="1">
          <mxGeometry x="189" y="71" width="413" height="30" as="geometry" />
        </mxCell>
        <mxCell id="zHkrM2aUlT6kb9nou7SH-3" value="images" style="text;html=1;align=center;verticalAlign=middle;whiteSpace=wrap;rounded=0;" vertex="1" parent="1">
          <mxGeometry x="129" y="247" width="60" height="30" as="geometry" />
        </mxCell>
        <mxCell id="zHkrM2aUlT6kb9nou7SH-4" value="images" style="text;html=1;align=center;verticalAlign=middle;whiteSpace=wrap;rounded=0;" vertex="1" parent="1">
          <mxGeometry x="384" y="250" width="60" height="30" as="geometry" />
        </mxCell>
        <mxCell id="zHkrM2aUlT6kb9nou7SH-5" value="images" style="text;html=1;align=center;verticalAlign=middle;whiteSpace=wrap;rounded=0;" vertex="1" parent="1">
          <mxGeometry x="660" y="257" width="60" height="30" as="geometry" />
        </mxCell>
        <mxCell id="zHkrM2aUlT6kb9nou7SH-16" value="&lt;ul&gt;&lt;li&gt;plan1&lt;/li&gt;&lt;li&gt;place name&lt;/li&gt;&lt;li&gt;food place&lt;/li&gt;&lt;/ul&gt;" style="text;strokeColor=none;fillColor=none;html=1;whiteSpace=wrap;verticalAlign=middle;overflow=hidden;" vertex="1" parent="1">
          <mxGeometry x="93" y="442" width="119" height="143" as="geometry" />
        </mxCell>
        <mxCell id="zHkrM2aUlT6kb9nou7SH-17" value="&lt;ul&gt;&lt;li&gt;plan2&lt;/li&gt;&lt;li&gt;place name&lt;/li&gt;&lt;li&gt;food place&lt;/li&gt;&lt;/ul&gt;" style="text;strokeColor=none;fillColor=none;html=1;whiteSpace=wrap;verticalAlign=middle;overflow=hidden;" vertex="1" parent="1">
          <mxGeometry x="365" y="442" width="119" height="143" as="geometry" />
        </mxCell>
        <mxCell id="zHkrM2aUlT6kb9nou7SH-18" value="&lt;ul&gt;&lt;li&gt;plan3&lt;/li&gt;&lt;li&gt;place name&lt;/li&gt;&lt;li&gt;food place&lt;/li&gt;&lt;/ul&gt;" style="text;strokeColor=none;fillColor=none;html=1;whiteSpace=wrap;verticalAlign=middle;overflow=hidden;" vertex="1" parent="1">
          <mxGeometry x="645" y="442" width="119" height="143" as="geometry" />
        </mxCell>
      </root>
    </mxGraphModel>
  </diagram>
  <diagram id="dFnWTdkc9i7OM8Tg1u6m" name="Contact Us">
    <mxGraphModel dx="1050" dy="522" grid="0" gridSize="10" guides="1" tooltips="1" connect="1" arrows="1" fold="1" page="1" pageScale="1" pageWidth="827" pageHeight="1169" math="0" shadow="0">
      <root>
        <mxCell id="0" />
        <mxCell id="1" parent="0" />
        <mxCell id="EhBYkfzituTafZx3RulC-1" value="Contact Us" style="text;html=1;align=center;verticalAlign=middle;whiteSpace=wrap;rounded=0;fontSize=43;" vertex="1" parent="1">
          <mxGeometry x="293" y="113" width="250" height="30" as="geometry" />
        </mxCell>
        <mxCell id="WHj9V0oRVcHIzqqXdHhb-1" value="Home Japan Trip Plans&amp;nbsp; Contact Us" style="text;html=1;align=center;verticalAlign=middle;whiteSpace=wrap;rounded=0;fontSize=19;" vertex="1" parent="1">
          <mxGeometry x="449" y="24" width="389" height="30" as="geometry" />
        </mxCell>
        <mxCell id="WHj9V0oRVcHIzqqXdHhb-8" value="" style="rounded=0;whiteSpace=wrap;html=1;" vertex="1" parent="1">
          <mxGeometry x="187" y="181" width="462" height="213" as="geometry" />
        </mxCell>
        <mxCell id="WHj9V0oRVcHIzqqXdHhb-9" value="Our Information form&amp;nbsp;" style="text;html=1;align=center;verticalAlign=middle;whiteSpace=wrap;rounded=0;fontSize=21;" vertex="1" parent="1">
          <mxGeometry x="330" y="290" width="206" height="30" as="geometry" />
        </mxCell>
        <mxCell id="WHj9V0oRVcHIzqqXdHhb-10" value="" style="rounded=0;whiteSpace=wrap;html=1;" vertex="1" parent="1">
          <mxGeometry x="189" y="458" width="462" height="213" as="geometry" />
        </mxCell>
        <mxCell id="WHj9V0oRVcHIzqqXdHhb-12" value="Your Information form&amp;nbsp;" style="text;html=1;align=center;verticalAlign=middle;whiteSpace=wrap;rounded=0;fontSize=21;" vertex="1" parent="1">
          <mxGeometry x="318" y="552" width="220" height="30" as="geometry" />
        </mxCell>
      </root>
    </mxGraphModel>
  </diagram>
</mxfile>
